<mxfile host="app.diagrams.net" modified="2023-05-10T06:36:43.590Z" agent="Mozilla/5.0 (Windows NT 10.0; Win64; x64) AppleWebKit/537.36 (KHTML, like Gecko) Chrome/113.0.0.0 Safari/537.36" etag="I4jQHSsZsdVRk1kSwpt7" version="21.2.9" type="device">
  <diagram name="Page-1" id="fCqE7QieqCJTbKclKqhK">
    <mxGraphModel dx="1434" dy="796" grid="1" gridSize="10" guides="1" tooltips="1" connect="1" arrows="1" fold="1" page="1" pageScale="1" pageWidth="850" pageHeight="1100" math="0" shadow="0">
      <root>
        <mxCell id="0" />
        <mxCell id="1" parent="0" />
        <mxCell id="FEju1snr-iZBge_bUA5I-3" style="edgeStyle=orthogonalEdgeStyle;rounded=0;orthogonalLoop=1;jettySize=auto;html=1;entryX=0.433;entryY=0.006;entryDx=0;entryDy=0;entryPerimeter=0;" parent="1" source="FEju1snr-iZBge_bUA5I-1" target="FEju1snr-iZBge_bUA5I-2" edge="1">
          <mxGeometry relative="1" as="geometry" />
        </mxCell>
        <mxCell id="FEju1snr-iZBge_bUA5I-5" style="edgeStyle=orthogonalEdgeStyle;rounded=0;orthogonalLoop=1;jettySize=auto;html=1;" parent="1" source="FEju1snr-iZBge_bUA5I-1" target="FEju1snr-iZBge_bUA5I-6" edge="1">
          <mxGeometry relative="1" as="geometry">
            <mxPoint x="560" y="85" as="targetPoint" />
          </mxGeometry>
        </mxCell>
        <mxCell id="fN4WgO_m412Plji4pzTX-3" style="edgeStyle=orthogonalEdgeStyle;rounded=0;orthogonalLoop=1;jettySize=auto;html=1;entryX=0.5;entryY=0;entryDx=0;entryDy=0;" parent="1" source="FEju1snr-iZBge_bUA5I-1" target="fN4WgO_m412Plji4pzTX-4" edge="1">
          <mxGeometry relative="1" as="geometry">
            <mxPoint x="375.5" y="340" as="targetPoint" />
          </mxGeometry>
        </mxCell>
        <mxCell id="xwumcgSZCQS0Tu58TyeT-2" style="edgeStyle=orthogonalEdgeStyle;rounded=0;orthogonalLoop=1;jettySize=auto;html=1;entryX=0.5;entryY=0;entryDx=0;entryDy=0;" edge="1" parent="1" source="FEju1snr-iZBge_bUA5I-1" target="xwumcgSZCQS0Tu58TyeT-3">
          <mxGeometry relative="1" as="geometry">
            <mxPoint x="330" y="600" as="targetPoint" />
          </mxGeometry>
        </mxCell>
        <mxCell id="FEju1snr-iZBge_bUA5I-1" value="" style="sketch=0;pointerEvents=1;shadow=0;dashed=0;html=1;strokeColor=none;fillColor=#505050;labelPosition=center;verticalLabelPosition=bottom;verticalAlign=top;outlineConnect=0;align=center;shape=mxgraph.office.concepts.home;" parent="1" vertex="1">
          <mxGeometry x="350" y="60" width="51" height="50" as="geometry" />
        </mxCell>
        <mxCell id="FEju1snr-iZBge_bUA5I-4" style="edgeStyle=orthogonalEdgeStyle;rounded=0;orthogonalLoop=1;jettySize=auto;html=1;" parent="1" source="FEju1snr-iZBge_bUA5I-2" target="FEju1snr-iZBge_bUA5I-1" edge="1">
          <mxGeometry relative="1" as="geometry" />
        </mxCell>
        <mxCell id="fN4WgO_m412Plji4pzTX-1" style="edgeStyle=orthogonalEdgeStyle;rounded=0;orthogonalLoop=1;jettySize=auto;html=1;exitX=0.5;exitY=1;exitDx=0;exitDy=0;entryX=0.5;entryY=0;entryDx=0;entryDy=0;" parent="1" source="FEju1snr-iZBge_bUA5I-2" target="fN4WgO_m412Plji4pzTX-2" edge="1">
          <mxGeometry relative="1" as="geometry">
            <mxPoint x="220" y="410" as="targetPoint" />
            <Array as="points">
              <mxPoint x="220" y="410" />
              <mxPoint x="220" y="410" />
            </Array>
          </mxGeometry>
        </mxCell>
        <mxCell id="xwumcgSZCQS0Tu58TyeT-4" style="edgeStyle=orthogonalEdgeStyle;rounded=0;orthogonalLoop=1;jettySize=auto;html=1;strokeColor=#000099;entryX=0;entryY=0.5;entryDx=0;entryDy=0;startArrow=classic;startFill=1;" edge="1" parent="1" source="FEju1snr-iZBge_bUA5I-2" target="FEju1snr-iZBge_bUA5I-6">
          <mxGeometry relative="1" as="geometry">
            <mxPoint x="420" y="290" as="targetPoint" />
          </mxGeometry>
        </mxCell>
        <mxCell id="FEju1snr-iZBge_bUA5I-2" value="&lt;table border=&quot;1&quot; width=&quot;100%&quot; height=&quot;100%&quot; cellpadding=&quot;4&quot; style=&quot;width:100%;height:100%;border-collapse:collapse;&quot;&gt;&lt;tbody&gt;&lt;tr&gt;&lt;th align=&quot;center&quot;&gt;Project&lt;/th&gt;&lt;/tr&gt;&lt;tr&gt;&lt;td align=&quot;center&quot;&gt;Input Partner&lt;br&gt;Input Country&amp;nbsp;&lt;br&gt;Input Restriction&lt;br&gt;Input Product&lt;/td&gt;&lt;/tr&gt;&lt;/tbody&gt;&lt;/table&gt;" style="text;html=1;whiteSpace=wrap;strokeColor=none;fillColor=none;overflow=fill;" parent="1" vertex="1">
          <mxGeometry x="130" y="170" width="180" height="180" as="geometry" />
        </mxCell>
        <mxCell id="FEju1snr-iZBge_bUA5I-7" style="edgeStyle=orthogonalEdgeStyle;rounded=0;orthogonalLoop=1;jettySize=auto;html=1;" parent="1" source="FEju1snr-iZBge_bUA5I-6" target="FEju1snr-iZBge_bUA5I-1" edge="1">
          <mxGeometry relative="1" as="geometry" />
        </mxCell>
        <mxCell id="xwumcgSZCQS0Tu58TyeT-5" style="edgeStyle=orthogonalEdgeStyle;rounded=0;orthogonalLoop=1;jettySize=auto;html=1;entryX=1;entryY=0.5;entryDx=0;entryDy=0;strokeColor=#000099;startArrow=classic;startFill=1;" edge="1" parent="1" source="FEju1snr-iZBge_bUA5I-6" target="fN4WgO_m412Plji4pzTX-4">
          <mxGeometry relative="1" as="geometry" />
        </mxCell>
        <mxCell id="FEju1snr-iZBge_bUA5I-6" value="&lt;table border=&quot;1&quot; width=&quot;100%&quot; height=&quot;100%&quot; cellpadding=&quot;4&quot; style=&quot;width:100%;height:100%;border-collapse:collapse;&quot;&gt;&lt;tbody&gt;&lt;tr&gt;&lt;th align=&quot;center&quot;&gt;&lt;b&gt;Country Table&lt;/b&gt;&lt;/th&gt;&lt;/tr&gt;&lt;tr&gt;&lt;td align=&quot;center&quot;&gt;Just a table&amp;nbsp;&lt;br&gt;&lt;/td&gt;&lt;/tr&gt;&lt;tr&gt;&lt;td align=&quot;center&quot;&gt;&lt;br&gt;&lt;/td&gt;&lt;/tr&gt;&lt;/tbody&gt;&lt;/table&gt;" style="text;html=1;whiteSpace=wrap;strokeColor=none;fillColor=none;overflow=fill;" parent="1" vertex="1">
          <mxGeometry x="470" y="200" width="180" height="60" as="geometry" />
        </mxCell>
        <mxCell id="fN4WgO_m412Plji4pzTX-2" value="&lt;table border=&quot;1&quot; width=&quot;100%&quot; height=&quot;100%&quot; cellpadding=&quot;4&quot; style=&quot;width:100%;height:100%;border-collapse:collapse;&quot;&gt;&lt;tbody&gt;&lt;tr&gt;&lt;th align=&quot;center&quot;&gt;Display Fig()&lt;/th&gt;&lt;/tr&gt;&lt;tr&gt;&lt;td align=&quot;center&quot;&gt;deployed by plotly&lt;/td&gt;&lt;/tr&gt;&lt;tr&gt;&lt;td align=&quot;center&quot;&gt;&lt;br&gt;&lt;/td&gt;&lt;/tr&gt;&lt;/tbody&gt;&lt;/table&gt;" style="text;html=1;whiteSpace=wrap;strokeColor=none;fillColor=none;overflow=fill;" parent="1" vertex="1">
          <mxGeometry x="130" y="440" width="180" height="60" as="geometry" />
        </mxCell>
        <mxCell id="xwumcgSZCQS0Tu58TyeT-1" style="edgeStyle=orthogonalEdgeStyle;rounded=0;orthogonalLoop=1;jettySize=auto;html=1;" edge="1" parent="1" source="fN4WgO_m412Plji4pzTX-4" target="FEju1snr-iZBge_bUA5I-1">
          <mxGeometry relative="1" as="geometry" />
        </mxCell>
        <mxCell id="xwumcgSZCQS0Tu58TyeT-8" style="edgeStyle=orthogonalEdgeStyle;rounded=0;orthogonalLoop=1;jettySize=auto;html=1;entryX=0.75;entryY=1;entryDx=0;entryDy=0;strokeColor=#000099;startArrow=classic;startFill=1;" edge="1" parent="1" source="fN4WgO_m412Plji4pzTX-4" target="FEju1snr-iZBge_bUA5I-2">
          <mxGeometry relative="1" as="geometry">
            <Array as="points">
              <mxPoint x="280" y="450" />
              <mxPoint x="280" y="380" />
              <mxPoint x="265" y="380" />
            </Array>
          </mxGeometry>
        </mxCell>
        <mxCell id="fN4WgO_m412Plji4pzTX-4" value="&lt;table border=&quot;1&quot; width=&quot;100%&quot; height=&quot;100%&quot; cellpadding=&quot;4&quot; style=&quot;width:100%;height:100%;border-collapse:collapse;&quot;&gt;&lt;tbody&gt;&lt;tr&gt;&lt;th align=&quot;center&quot;&gt;Change request&lt;/th&gt;&lt;/tr&gt;&lt;tr&gt;&lt;td align=&quot;center&quot;&gt;Input Country&amp;nbsp;&lt;br&gt;Text Input&lt;/td&gt;&lt;/tr&gt;&lt;/tbody&gt;&lt;/table&gt;" style="text;html=1;whiteSpace=wrap;strokeColor=none;fillColor=none;overflow=fill;" parent="1" vertex="1">
          <mxGeometry x="370" y="360" width="180" height="180" as="geometry" />
        </mxCell>
        <mxCell id="xwumcgSZCQS0Tu58TyeT-7" style="edgeStyle=orthogonalEdgeStyle;rounded=0;orthogonalLoop=1;jettySize=auto;html=1;" edge="1" parent="1" source="xwumcgSZCQS0Tu58TyeT-3" target="FEju1snr-iZBge_bUA5I-1">
          <mxGeometry relative="1" as="geometry" />
        </mxCell>
        <mxCell id="xwumcgSZCQS0Tu58TyeT-9" style="edgeStyle=orthogonalEdgeStyle;rounded=0;orthogonalLoop=1;jettySize=auto;html=1;entryX=0.639;entryY=1.022;entryDx=0;entryDy=0;entryPerimeter=0;startArrow=classic;startFill=1;strokeColor=#000099;" edge="1" parent="1" source="xwumcgSZCQS0Tu58TyeT-3" target="fN4WgO_m412Plji4pzTX-4">
          <mxGeometry relative="1" as="geometry">
            <mxPoint x="510" y="600" as="targetPoint" />
            <Array as="points">
              <mxPoint x="311" y="650" />
              <mxPoint x="460" y="650" />
              <mxPoint x="460" y="601" />
              <mxPoint x="485" y="601" />
            </Array>
          </mxGeometry>
        </mxCell>
        <mxCell id="xwumcgSZCQS0Tu58TyeT-3" value="&lt;table border=&quot;1&quot; width=&quot;100%&quot; height=&quot;100%&quot; cellpadding=&quot;4&quot; style=&quot;width:100%;height:100%;border-collapse:collapse;&quot;&gt;&lt;tbody&gt;&lt;tr&gt;&lt;th align=&quot;center&quot;&gt;Country Info&lt;/th&gt;&lt;/tr&gt;&lt;tr&gt;&lt;td align=&quot;center&quot;&gt;Input Country&amp;nbsp;&lt;br&gt;&lt;br&gt;&lt;/td&gt;&lt;/tr&gt;&lt;/tbody&gt;&lt;/table&gt;" style="text;html=1;whiteSpace=wrap;strokeColor=none;fillColor=none;overflow=fill;" vertex="1" parent="1">
          <mxGeometry x="221" y="570" width="180" height="60" as="geometry" />
        </mxCell>
      </root>
    </mxGraphModel>
  </diagram>
</mxfile>
